#!OML:ASF E:/inclinewalkrobotboard/Project1/Captureday1/Session1/subject1.ASF
:FULLY-SPECIFIED
:DEGREES
88
root 0 0 0 1.427057912322614 -3.5397369253999753 1.8896826705732785
lowerback 11.967095787683 0.8934157702943735 -0.09697318303505509
upperback -4.434666437764623 1.1200493708545496 -0.6294593423420912
thorax -11.554510997428702 0.5144923576548687 -0.8694931048766738
lowerneck -6.095193317980889 1.6530423109541326 4.624358984577019
upperneck 18.447371696172794 3.1572554100437595 -8.269900662205275
head 6.779543883344762 1.1636009696757386 -3.1892545675333763
rclavicle -1.743658320868031E-16 -9.704689397222622E-16
rhumerus 22.22656098078999 15.949906534038556 -46.541312626090104
rradius 74.3129364022916
rwrist 27.89231796146209
rhand -34.85629867445263 -59.7612533543213
rfingers 7.12502
rthumb -8.016222017749868 -89.57375539538113
lclavicle -1.7275293805889568E-16 -9.490042431562864E-16
lhumerus 22.79280461542042 -12.795559308093823 43.63231373663572
lradius 71.32035644874969
lwrist -23.63660256673868
lhand -45.336467636432204 -73.19542411635055
lfingers 7.12502
lthumb -18.093721424691118 -43.97741965500171
rfemur -25.591880304882004 -2.1491048056136774 16.695214096126186
rtibia 54.68649753299014
rfoot -27.312246059321858 -16.460637004546943
rtoes -17.666108318193164
lfemur -21.804037023177933 1.2322082112947927 -18.180311778755357
ltibia 48.64321071215897
lfoot -23.73068815989664 -3.6043700020013465
ltoes -15.42201549517023
89
root 0 0 0 1.4271166164152604 -3.5396460528110154 1.8899119267033895
lowerback 11.967113560362018 0.8933616759964069 -0.09716476575558797
upperback -4.434731879707697 1.1199508907569138 -0.6295014822906561
thorax -11.554605596673465 0.5144492620371846 -0.869415788604118
lowerneck -6.095026854616145 1.6531332790531617 4.624445171408982
upperneck 18.447348031170325 3.157382311645287 -8.270049771065569
head 6.779503517053234 1.1636540485319755 -3.189296236118894
rclavicle -1.7434195048664295E-16 -9.704607406100605E-16
rhumerus 22.22683342618467 15.950084325539054 -46.54114770224574
rradius 74.31319255017559
rwrist 27.892440700697176
rhand -34.856388962531504 -59.7616792248386
rfingers 7.12502
rthumb -8.016311263652515 -89.57417537475706
lclavicle -1.7277008429109476E-16 -9.490148502932592E-16
lhumerus 22.79168918714066 -12.79527974356908 43.63308810599608
lradius 71.31947852036109
lwrist -23.63601738544331
lhand -45.336091479827566 -73.19348932457022
lfingers 7.12502
lthumb -18.093365720290755 -43.97550312517389
rfemur -25.59716370088402 -2.1516141286299373 16.69148655334213
rtibia 54.692326750924266
rfoot -27.318765928600786 -16.464196826908267
rtoes -17.67353696589051
lfemur -21.799222461722337 1.2309941238938382 -18.181217198777723
ltibia 48.63635632066058
lfoot -23.725474328831364 -3.603943083403605
ltoes -15.417897928578814
90
root 0 0 0 1.4263012574056821 -3.5372634524515343 1.8922774306752579
lowerback 11.966798468674636 0.8919604205065673 -0.10034731674736885
upperback -4.433585378430093 1.117748709708144 -0.6290847681684643
thorax -11.553340550113585 0.5134463866330305 -0.8668218990112927
lowerneck -6.096884324074114 1.6526070222766556 4.622782204387201
upperneck 18.44743267914557 3.156410980676531 -8.268585801737132
head 6.7797988536269775 1.163252580317061 -3.188598644726272
rclavicle -1.7496643764143986E-16 -9.70700807389063E-16
rhumerus 22.213553805923034 15.941866951180119 -46.549498523957894
rradius 74.30150396819525
rwrist 27.886452867805204
rhand -34.85209114448625 -59.742158581322016
rfingers 7.12502
rthumb -8.01208023981543 -89.55478905707585
lclavicle -1.7319594969483608E-16 -9.483453672640456E-16
lhumerus 22.790276975061463 -12.794685167211831 43.63431419856701
lradius 71.31818639441059
lwrist -23.63484526246156
lhand -45.33553253101646 -73.1893263324721
lfingers 7.12502
lthumb -18.092527773114924 -43.9726497794111
rfemur -25.584200769898665 -2.145288969315329 16.700831138859986
rtibia 54.67756485620257
rfoot -27.302148455263055 -16.455721583156375
rtoes -17.655084484360803
lfemur -21.81433549323536 1.2349312471227325 -18.178639444567303
ltibia 48.65807184957962
lfoot -23.741713380387807 -3.605499303659379
ltoes -15.431264360032504
91
root 0 0 0 1.426711723615946 -3.53859806614588 1.8909038493084538
lowerback 11.966986571854484 0.8927533081291568 -0.09851077089535265
upperback -4.434189655178999 1.1190087179440296 -0.6293084893739825
thorax -11.55400938986405 0.5140213419833719 -0.8683124760188282
lowerneck -6.095894893793512 1.6528664372885442 4.623696324517435
upperneck 18.447399826981353 3.156896824769578 -8.269362451454963
head 6.779651368965309 1.1634506163659046 -3.188984879419336
rclavicle -1.7446188298453738E-16 -9.704831671481189E-16
rhumerus 22.223250089085255 15.947760858660201 -46.543336881545414
rradius 74.30985292917418
rwrist 27.89080744418538
rhand -34.85522374401778 -59.75606668787224
rfingers 7.12502
rthumb -8.015152527822398 -89.56858445137277
lclavicle -1.7272139695278747E-16 -9.490012989380794E-16
lhumerus 22.793888197904966 -12.795854663062018 43.63152647397058
lradius 71.3212238641353
lwrist -23.637201370149867
lhand -45.33685775957527 -73.19735560172172
lfingers 7.12502
lthumb -18.094093547413244 -43.97926978879302
rfemur -25.584853287441803 -2.145751771303961 16.700206980398036
rtibia 54.67876228527388
rfoot -27.303346461340126 -16.455793923153035
rtoes -17.6560510056065
lfemur -21.81113651285042 1.2340689809915082 -18.17904096196286
ltibia 48.65372366190569
lfoot -23.73856921771996 -3.605175547775636
ltoes -15.42845500850846
